<svg viewBox="0 0 680 416" xmlns="http://www.w3.org/2000/svg" font-family="Arial, sans-serif">
<style>
  .box { stroke-width: 1.5; rx: 8; }
  .teal   { fill:#E3F3EF; stroke:#2B6E63; }
  .purple { fill:#EDE7F6; stroke:#6A4C93; }
  .blue   { fill:#E3EEFB; stroke:#2B6CB0; }
  .coral  { fill:#FDEDEA; stroke:#C0392B; }
  .amber  { fill:#FFF3E0; stroke:#B8860B; }
  .gray   { fill:#F2F2F2; stroke:#888888; }
  .th { font-size:15px; font-weight:700; fill:#1A1A1A; }
  .ts { font-size:12px; fill:#444444; }
  .arr { stroke:#555555; stroke-width:1.5; fill:none; }
</style>
<defs>
  <marker id="arrow" viewBox="0 0 10 10" refX="8" refY="5" markerWidth="6" markerHeight="6" orient="auto-start-reverse">
    <path d="M2 1L8 5L2 9" fill="none" stroke="#555555" stroke-width="1.5" stroke-linecap="round" stroke-linejoin="round"/>
  </marker>
</defs>

<rect width="680" height="416" fill="#FFFFFF"/>

<rect class="box teal" x="70" y="40" width="190" height="44"/>
<text class="th" x="165" y="66" text-anchor="middle">A · variable_info</text>

<rect class="box teal" x="290" y="40" width="190" height="44"/>
<text class="th" x="385" y="66" text-anchor="middle">B · expression_data</text>

<line x1="165" y1="84" x2="260" y2="115" class="arr" marker-end="url(#arrow)"/>
<line x1="385" y1="84" x2="340" y2="115" class="arr" marker-end="url(#arrow)"/>
<text class="ts" x="300" y="104" text-anchor="middle">h1 · D</text>

<rect class="box purple" x="190" y="115" width="220" height="44"/>
<text class="th" x="300" y="141" text-anchor="middle">C · bảng peak gộp</text>

<line x1="300" y1="159" x2="300" y2="185" class="arr" marker-end="url(#arrow)"/>
<text class="ts" x="340" y="176">h3 · E</text>

<rect class="box purple" x="190" y="185" width="220" height="44"/>
<text class="th" x="300" y="211" text-anchor="middle">F · reactive dùng chung</text>

<line x1="255" y1="229" x2="180" y2="255" class="arr" marker-end="url(#arrow)"/>
<line x1="345" y1="229" x2="400" y2="255" class="arr" marker-end="url(#arrow)"/>

<rect class="box blue" x="70" y="255" width="190" height="44"/>
<text class="th" x="165" y="281" text-anchor="middle">G1 · hiện bảng</text>

<rect class="box blue" x="290" y="255" width="190" height="44"/>
<text class="th" x="385" y="281" text-anchor="middle">G2 · xuất CSV</text>

<rect class="box coral" x="500" y="115" width="170" height="44"/>
<text class="th" x="585" y="141" text-anchor="middle">H · Option B rỗng</text>

<line x1="585" y1="159" x2="585" y2="185" class="arr" marker-end="url(#arrow)"/>
<text class="ts" x="600" y="176">h6 · h7</text>

<rect class="box coral" x="500" y="185" width="170" height="44"/>
<text class="th" x="585" y="211" text-anchor="middle">I · kiểm tra trước</text>

<path d="M165,299 L280,340" class="arr" marker-end="url(#arrow)"/>
<path d="M385,299 L420,340" class="arr" marker-end="url(#arrow)"/>
<path d="M585,229 L585,320 L460,320 L460,340" class="arr" marker-end="url(#arrow)"/>

<rect class="box amber" x="230" y="340" width="240" height="56"/>
<text class="th" x="350" y="364" text-anchor="middle">Kết quả cuối</text>
<text class="ts" x="350" y="382" text-anchor="middle">bug đã sửa, luôn nhất quán</text>
</svg>
